<?xml version="1.0" standalone="no"?>
<!DOCTYPE svg PUBLIC "-//W3C//DTD SVG 20010904//EN"
 "http://www.w3.org/TR/2001/REC-SVG-20010904/DTD/svg10.dtd">
<svg version="1.0" xmlns="http://www.w3.org/2000/svg"
 width="1472.000000pt" height="1472.000000pt" viewBox="0 0 1472.000000 1472.000000"
 preserveAspectRatio="xMidYMid meet">
<metadata>
Created by potrace 1.14, written by Peter Selinger 2001-2017
</metadata>
<g transform="translate(0.000000,1472.000000) scale(0.100000,-0.100000)"
fill="#000000" stroke="none">
<path d="M2460 12267 l0 -2454 2453 0 2452 0 0 2451 0 2451 -2452 3 -2453 2 0
-2453z"/>
<path d="M7372 9805 c-4 -5 -7 -1110 -7 -2455 l0 -2445 2453 0 2452 0 -2 2454
-3 2455 -2443 0 c-1619 1 -2446 -2 -2450 -9z"/>
<path d="M2460 2453 l0 -2453 2453 0 2452 0 0 2442 c0 1344 -3 2448 -7 2454
-5 8 -705 11 -2453 11 l-2445 0 0 -2454z"/>
</g>
</svg>
